<svg width="48" height="48" viewBox="0 0 48 48" fill="none" xmlns="http://www.w3.org/2000/svg">
<g clip-path="url(#clip0_299_109)">
<rect width="48" height="48" fill="white"/>
<path d="M24.5 40C15.3873 40 8 32.8365 8 24C8 15.1634 15.3873 8 24.5 8C33.6127 8 41 15.1634 41 24C41 32.8365 33.6127 40 24.5 40Z" fill="#0B1B33"/>
<path fill-rule="evenodd" clip-rule="evenodd" d="M13.8694 26.9763C12.2353 27.5613 10.0803 28.6486 8.57579 29.6467C8.21834 29.8839 8.1085 29.9969 8 30.1286C8.2431 30.2633 8.4519 30.4095 9.5915 30.7386C10.2925 30.941 11.7104 31.402 12.7423 31.763L16.8115 33.1865C21.8831 34.9607 24.9905 35.35 29.0076 34.7141C32.4059 34.1762 35.541 33.1281 38.9532 31.3888C40.5604 30.5697 40.6309 30.412 41 30.0458C40.6279 30.0803 38.188 30.4111 34.1298 31.3174C29.6371 32.3208 28.0191 32.3958 25.4961 31.7178C24.3301 31.4045 22.5798 30.5444 21.8637 29.9328C21.5549 29.6691 21.314 29.4356 21.3348 29.4043C21.3953 29.313 23.3421 29.6067 24.9964 29.9971C25.9675 30.2263 27.1444 30.4387 27.6116 30.4689C28.5628 30.5307 29.7343 30.3466 30.4156 30.0283C30.8369 29.8315 31.4972 29.0063 31.5772 28.797C31.2298 28.6723 30.9645 28.6348 30.2384 28.5477C28.5817 28.3487 27.4165 28.058 24.5081 27.1174C21.755 26.2271 20.7222 26.0086 19.2252 26.0001C17.8795 25.9926 15.3082 26.4612 13.8694 26.9763Z" fill="#7C9ED9"/>
<path d="M24.4593 19.0153L18 21.3581M24.4593 19.0153L28.8288 24M24.4593 19.0153L22.6662 12M24.4593 19.0153L30 15.956" stroke="white" stroke-width="0.954907"/>
<path d="M16.8939 19.8038C16.0677 20.2145 15.7586 21.1658 16.2033 21.9287C16.6482 22.6915 17.6786 22.977 18.5048 22.5663C19.331 22.1556 19.6401 21.2042 19.1954 20.4414C18.7505 19.6786 17.7201 19.3931 16.8939 19.8038ZM21.4807 11.1878C20.6545 11.5985 20.3454 12.5498 20.7902 13.3127C21.2351 14.0755 22.2654 14.3609 23.0916 13.9503C23.9179 13.5395 24.2271 12.5882 23.7822 11.8253C23.3374 11.0625 22.307 10.7771 21.4807 11.1878ZM28.5611 22.6161C27.8934 22.948 27.6436 23.7167 28.0031 24.3331C28.3625 24.9495 29.1951 25.1802 29.8627 24.8482C30.5303 24.5164 30.7801 23.7477 30.4207 23.1313C30.0612 22.5149 29.2287 22.2843 28.5611 22.6161ZM29.352 15.6065C28.8083 15.8768 28.6049 16.5027 28.8976 17.0047C29.1903 17.5065 29.8682 17.6943 30.4119 17.4241C30.9554 17.1539 31.1589 16.5279 30.8662 16.026C30.5736 15.524 29.8956 15.3363 29.352 15.6065Z" fill="white" stroke="white" stroke-width="0.424403"/>
<path d="M23.4698 17.1807C22.4198 17.7322 22.027 19.0097 22.5922 20.034C23.1575 21.0584 24.4669 21.4417 25.5169 20.8902C26.5668 20.3387 26.9597 19.0612 26.3944 18.0369C25.8291 17.0125 24.5197 16.6292 23.4698 17.1807Z" fill="white"/>
</g>
<defs>
<clipPath id="clip0_299_109">
<rect width="48" height="48" fill="white"/>
</clipPath>
</defs>
</svg>
