<svg width="48" height="48" viewBox="0 0 48 48" fill="none" xmlns="http://www.w3.org/2000/svg">
<rect width="48" height="48" fill="white"/>
<path d="M9.04688 20.4521V27H7.84717L5.00391 22.8823H4.95117V27H3.57129V20.4521H4.78418L7.60986 24.5698H7.66699V20.4521H9.04688ZM9.73945 27V20.4521H14.1516V21.5947H11.1193V23.1328H13.9187V24.2534H11.1193V25.8574H14.1604V27H9.73945ZM14.5497 21.5947V20.4521H19.9242V21.5947H17.9291V27H16.5492V21.5947H14.5497ZM29.2898 27H27.8045L30.0677 20.4521H31.8475L34.1063 27H32.6253L32.1375 25.5059H29.7732L29.2898 27ZM30.1248 24.4248H31.7859L30.9817 21.9463H30.929L30.1248 24.4248ZM34.4385 27V20.4521H37.0137C37.7578 20.4521 38.335 20.647 38.7451 21.0366C39.1582 21.4263 39.3647 21.9448 39.3647 22.5923C39.3647 23.0405 39.2651 23.4243 39.0659 23.7437C38.8667 24.0601 38.5811 24.2974 38.209 24.4556L39.5977 27H38.0684L36.8291 24.6797H35.8184V27H34.4385ZM35.8184 23.5679H36.7544C37.5454 23.5679 37.9409 23.2427 37.9409 22.5923C37.9409 22.2671 37.8428 22.0181 37.6465 21.8452C37.4502 21.6724 37.1514 21.5859 36.75 21.5859H35.8184V23.5679ZM39.9035 27V20.4521H41.2834V23.3394H41.3669L43.7268 20.4521H45.3835L42.9577 23.3833L45.4143 27H43.7531L41.9646 24.3105L41.2834 25.1411V27H39.9035Z" fill="#000B33"/>
<path d="M20.3707 20.4521H22.0758L23.8775 24.8511H23.9522L25.7584 20.4521H27.4767V27H26.1187V22.7373H26.0704L24.3697 26.9692H23.4513L21.7682 22.7285H21.711V27H20.3707V20.4521Z" fill="#00BB98"/>
</svg>
