<svg xmlns="http://www.w3.org/2000/svg" width="24" height="24" viewBox="0 0 24 24" fill="none" class="injected-svg" data-src="https://cdn.hugeicons.com/icons/mic-02-solid-standard.svg" xmlns:xlink="http://www.w3.org/1999/xlink" role="img" color="#000000">
<path fill-rule="evenodd" clip-rule="evenodd" d="M6.25 7C6.25 3.82436 8.82436 1.25 12 1.25C15.1756 1.25 17.75 3.82436 17.75 7V11C17.75 14.1756 15.1756 16.75 12 16.75C8.82436 16.75 6.25 14.1756 6.25 11V7Z" fill="#000000"></path>
<path fill-rule="evenodd" clip-rule="evenodd" d="M4 10C4.55228 10 5 10.4477 5 11C5 14.866 8.13401 18 12 18C15.866 18 19 14.866 19 11C19 10.4477 19.4477 10 20 10C20.5523 10 21 10.4477 21 11C21 15.6326 17.5 19.4476 13 19.9451V21H14.5C15.0523 21 15.5 21.4477 15.5 22C15.5 22.5523 15.0523 23 14.5 23H9.5C8.94772 23 8.5 22.5523 8.5 22C8.5 21.4477 8.94772 21 9.5 21H11V19.9451C6.50005 19.4476 3 15.6326 3 11C3 10.4477 3.44772 10 4 10Z" fill="#000000"></path>
</svg>