<svg xmlns="http://www.w3.org/2000/svg" width="24" height="24" viewBox="0 0 24 24" fill="none" class="injected-svg" data-src="https://cdn.hugeicons.com/icons/chair-02-solid-sharp.svg" xmlns:xlink="http://www.w3.org/1999/xlink" role="img" color="#000000">
<path d="M5.25 14.4999C5.25 12.5414 6.63275 10.7499 8.57143 10.7499H15.4286C17.3672 10.7499 18.75 12.5414 18.75 14.4999V16.2499H5.25V14.4999Z" fill="#000000"></path>
<path d="M6 15.2501V22.2501H8V19.2501H16V22.2501H18V15.2501H16V17.2501H8V15.2501H6Z" fill="#000000"></path>
<path d="M6.06699 10.301C6.75723 9.8034 7.60165 9.50024 8.57143 9.50024H15.4286C16.3984 9.50024 17.2428 9.8034 17.933 10.301L18.7459 2.57876C18.7681 2.36735 18.6996 2.15643 18.5574 1.99844C18.4152 1.84045 18.2126 1.75024 18 1.75024L6 1.75025C5.78743 1.75025 5.58483 1.84046 5.44261 1.99845C5.30038 2.15643 5.23187 2.36735 5.25412 2.57876L6.06699 10.301Z" fill="#000000"></path>
</svg>