<svg width="48" height="48" viewBox="0 0 48 48" fill="none" xmlns="http://www.w3.org/2000/svg">
<rect width="48" height="48" fill="white"/>
<path opacity="0.56" d="M21.3117 35C22.8317 35.7252 24.4236 36.2543 26 36.5669C24.8148 37.6611 22.9553 38.3151 20.4134 37.8463C20.1275 37.7936 19.9454 37.5516 20.0148 37.3055C20.2375 36.5153 20.6821 35.7122 21.3137 35.0017L21.3117 35Z" fill="#02C153"/>
<path opacity="0.88" d="M39.9874 26.2738C40.045 26.0076 39.9001 25.739 39.667 25.6622C30.4821 22.6352 25.7924 30.6213 26.0071 36.7544C33.27 38.3194 38.7237 32.1185 39.9874 26.2738Z" fill="#027B35"/>
<path opacity="0.72" d="M9.26702 19.0059C8.73775 18.949 8.26537 19.3076 8.19702 19.7986C6.34867 33.073 17.9092 38.1681 25.9805 36.7788C26.4806 26.4015 17.2658 19.8665 9.26702 19.0059Z" fill="#02C153"/>
<path d="M16.7384 11.0539C16.5193 10.9364 16.2456 11.0182 16.115 11.2302C8.19476 24.0884 16.9159 34.1136 25.1575 36C30.2051 25.5158 24.049 14.9742 16.7384 11.0539Z" fill="#02C153"/>
<path d="M32.9264 14.0214C32.8966 13.9914 32.8488 13.9932 32.8206 14.0252C29.861 17.3759 30.9781 19.3875 32.8656 21.9692C32.8936 22.0076 32.9463 22.0105 32.978 21.9758C35.604 19.0989 35.7607 16.8748 32.9264 14.0214Z" fill="#FAC84C"/>
<path opacity="0.8" d="M29.0346 18.0414C28.9861 18.089 28.989 18.1651 29.0406 18.2101C32.3702 21.115 34.384 20.0276 36.9504 18.1657C37.0122 18.1209 37.0169 18.037 36.9609 17.9866C34.0982 15.4045 31.875 15.2533 29.0346 18.0414Z" fill="#FAC84C"/>
</svg>
