<?xml version="1.0" encoding="UTF-8"?>
<!DOCTYPE svg PUBLIC "-//W3C//DTD SVG 1.1//EN" "http://www.w3.org/Graphics/SVG/1.1/DTD/svg11.dtd">
<svg xmlns="http://www.w3.org/2000/svg" version="1.1" width="225px" height="225px" style="shape-rendering:geometricPrecision; text-rendering:geometricPrecision; image-rendering:optimizeQuality; fill-rule:evenodd; clip-rule:evenodd" xmlns:xlink="http://www.w3.org/1999/xlink">
<g><path style="opacity:1" fill="#000" d="M 106.5,24.5 C 120.991,23.2593 134.825,25.5926 148,31.5C 153.258,27.7876 159.092,25.6209 165.5,25C 174.16,24.5002 182.827,24.3336 191.5,24.5C 191.267,31.2491 191.267,37.9157 191.5,44.5C 212.543,49.5803 222.043,62.9136 220,84.5C 217.526,94.8077 211.692,102.474 202.5,107.5C 202.954,131.921 194.12,152.254 176,168.5C 175.5,175.158 175.334,181.825 175.5,188.5C 169.31,188.321 165.143,185.321 163,179.5C 160.475,184.574 158.642,189.907 157.5,195.5C 150.338,193.741 144.671,189.741 140.5,183.5C 136.593,188.302 133.426,193.635 131,199.5C 125.066,195.567 120.566,190.4 117.5,184C 98.3597,184.366 80.3597,180.033 63.5,171C 53.4811,164.124 46.4811,154.958 42.5,143.5C 14.7582,140.592 2.25816,125.258 5,97.5C 8.49115,87.1835 14.9912,79.5169 24.5,74.5C 25.3176,66.2223 25.3176,58.0557 24.5,50C 33.4047,44.3622 43.0714,42.0288 53.5,43C 56.6181,43.8725 59.6181,45.0392 62.5,46.5C 75.3498,35.4084 90.0165,28.0751 106.5,24.5 Z"/></g>
<g><path style="opacity:1" fill="#fff" d="M 76.5,62.5 C 75.2626,59.8381 74.4293,57.1715 74,54.5C 81.794,47.7693 90.794,43.7693 101,42.5C 104.639,42.4815 108.139,43.1482 111.5,44.5C 119.49,43.3087 127.49,43.4754 135.5,45C 136.28,46.073 136.113,47.2396 135,48.5C 134.333,50.8333 134.333,53.1667 135,55.5C 136.677,52.1466 138.843,49.1466 141.5,46.5C 143.51,47.5019 145.51,48.5019 147.5,49.5C 145.501,51.4935 144.001,53.8268 143,56.5C 137.202,57.2498 131.369,58.0831 125.5,59C 121.835,60.497 118.502,62.497 115.5,65C 129.208,64.002 142.875,64.6687 156.5,67C 173.973,73.8097 185.14,86.3097 190,104.5C 193.339,128.481 186.672,149.148 170,166.5C 169.116,171.327 169.616,175.994 171.5,180.5C 168.174,181.348 165.507,180.181 163.5,177C 157.344,178.082 154.678,181.915 155.5,188.5C 149.739,187.036 144.573,184.369 140,180.5C 135.133,182.034 131.466,185.034 129,189.5C 125.254,185.587 122.087,181.254 119.5,176.5C 106.504,175.134 93.8369,172.301 81.5,168C 68.4287,162.813 58.762,153.98 52.5,141.5C 71.1731,132.154 78.6731,117.154 75,96.5C 72.7997,91.135 69.9663,86.135 66.5,81.5C 76.2323,72.0415 87.8989,68.5415 101.5,71C 112.908,71.7851 122.075,76.6184 129,85.5C 124.684,73.5313 116.184,66.0313 103.5,63C 94.3554,62.5983 85.3554,62.4316 76.5,62.5 Z"/></g>
<g><path style="opacity:1" fill="#000" d="M 174.5,114.5 C 178.106,114.211 181.606,114.544 185,115.5C 187.867,129.438 185.034,141.938 176.5,153C 172.278,156.111 167.611,157.111 162.5,156C 157.964,152.629 153.298,149.462 148.5,146.5C 151.054,136.22 156.054,127.387 163.5,120C 167.017,117.674 170.683,115.84 174.5,114.5 Z"/></g>
<g><path style="opacity:1" fill="#000" d="M 77.5,122.5 C 92.8966,120.809 106.897,124.309 119.5,133C 124.167,138.333 128.833,143.667 133.5,149C 130.833,150.333 128.167,151.667 125.5,153C 113.795,164.518 101.128,165.518 87.5,156C 77.7956,147.378 73.4623,136.545 74.5,123.5C 75.791,123.737 76.791,123.404 77.5,122.5 Z"/></g>
<g><path style="opacity:1" fill="#000" d="M 141.5,158.5 C 146.351,157.868 148.851,159.868 149,164.5C 147.542,165.747 146.042,165.747 144.5,164.5C 141.704,168.599 139.371,168.432 137.5,164C 138.483,161.85 139.816,160.017 141.5,158.5 Z"/></g>
</svg>
